<svg xmlns="http://www.w3.org/2000/svg" xmlns:xlink="http://www.w3.org/1999/xlink" version="1.1" x="0px" y="0px" fill="white" viewBox="0 0 100 100" enable-background="new 0 0 100 100" xml:space="preserve">
	<path d="M69.608,82.617c-7.604,17.426-51.4,17.026-61.563-12.917C1.766,51.215,7.468,37.323,18.302,28.561  c21.153-17.115,46.179-1.136,49.008,3.108c3.957,5.938,12.03,2.301,19.988,17.868c0.886,1.732,7.521,1.857,8.14,13.268  c-5.84-0.363-6.449-0.788-10.057-1.794c-1.735,1.923-1.597,4.373-5.637,7.984c2.072,5.553,2.072,5.553,2.497,10.179  c-4.67,0.347-8.097,0.371-13.142-4.846c0,0-6.442,0.842-12.453-3.599c-14.595,16.63-34.711,5.427-39.221,1.448  c9.196,14.773,32.464,10.965,39.314,5.487C63.596,72.18,71.466,75.717,69.608,82.617z">
	</path>
</svg>
